<svg width="1024" height="1024" viewBox="0 0 1024 1024" fill="none" xmlns="http://www.w3.org/2000/svg">
<path d="M579.453 207.193C624.609 197.595 661.215 227.238 661.215 273.403V687.164C661.215 733.328 624.609 778.533 579.453 788.131L444.547 816.806C399.391 826.404 362.785 796.761 362.785 750.597V336.836C362.785 290.671 399.391 245.467 444.547 235.869L579.453 207.193ZM595.805 320.199C595.805 292.5 573.842 274.714 546.748 280.473L477.252 295.246C450.158 301.004 428.195 328.127 428.195 355.826V702.716C428.195 730.415 450.158 748.201 477.252 742.442L546.748 727.669C573.842 721.91 595.805 694.788 595.805 667.089V320.199Z" fill="#1DD45A"/>
</svg>
